<svg xmlns="http://www.w3.org/2000/svg" xmlns:xlink="http://www.w3.org/1999/xlink" xmlns:inkscape="http://www.inkscape.org/namespaces/inkscape" version="1.1" width="240" height="240" viewBox="137.5 250 61.2 61.2">
<defs>
<clipPath id="clip_1">
<path transform="matrix(1,0,0,-1,0,595.276)" d="M0 595.276H841.89V0H0Z"/>
</clipPath>
</defs>
<g inkscape:groupmode="layer" inkscape:label="Layer 1">
<path transform="matrix(1,0,0,-1,357.3663,324.76863)" d="M0 0-4.76 7.444-4.821 7.539H-5.444L-5.847-4.573H-4.363L-4.691 4.661-.717-1.562-.656-1.656H.067L3.594 5.463V-4.573H5.064V7.309H3.609Z" fill="#3b3b3c"/>
<g clip-path="url(#clip_1)">
<path transform="matrix(1,0,0,-1,366.6023,328.5924)" d="M0 0V5.063C.17 5.056 .419 5.042 .746 5.019L3.519 4.843V6.033L.746 5.856C.419 5.835 .17 5.821 0 5.815V10.384C.174 10.37 .418 10.341 .731 10.297L3.69 9.889V11.133H-1.47V-.749H3.736V.496L.746 .087C.434 .042 .184 .013 0 0" fill="#3b3b3c"/>
<path transform="matrix(1,0,0,-1,373.7319,318.2631)" d="M0 0H2.161C3.597 0 4.732-.451 5.534-1.342 6.341-2.236 6.75-3.514 6.75-5.137 6.75-6.759 6.341-8.037 5.534-8.931 4.733-9.822 3.598-10.273 2.161-10.273H0ZM5.402 .059C4.485 .553 3.394 .803 2.161 .803H-1.47V-11.078H2.161C3.396-11.078 4.487-10.827 5.402-10.333 6.325-9.834 7.055-9.134 7.569-8.247 8.083-7.362 8.344-6.316 8.344-5.137 8.344-3.959 8.083-2.913 7.569-2.028 7.056-1.142 6.326-.44 5.402 .059" fill="#3b3b3c"/>
<path transform="matrix(1,0,0,-1,0,595.276)" d="M384 265.935H385.47V277.816H384Z" fill="#3b3b3c"/>
<path transform="matrix(1,0,0,-1,396.4636,327.5738)" d="M0 0C-.361-.331-.84-.615-1.423-.847-2.004-1.076-2.641-1.192-3.317-1.192-4.218-1.192-5.012-.969-5.679-.53-6.35-.088-6.884 .537-7.265 1.329-7.649 2.129-7.844 3.086-7.844 4.174-7.844 5.251-7.649 6.205-7.265 7.01-6.884 7.807-6.348 8.435-5.672 8.877-4.999 9.315-4.207 9.539-3.317 9.539-2.72 9.539-2.134 9.444-1.577 9.256-1.028 9.07-.567 8.8-.206 8.451L-.147 8.393H.219L.325 9.648 .188 9.706C-.106 9.831-.464 9.942-.874 10.037-1.288 10.13-1.714 10.206-2.138 10.26-2.571 10.315-2.968 10.344-3.317 10.344-4.182 10.344-4.994 10.186-5.732 9.878-6.47 9.568-7.123 9.131-7.673 8.58-8.225 8.027-8.662 7.367-8.972 6.621-9.281 5.872-9.438 5.048-9.438 4.174-9.438 3.297-9.281 2.474-8.971 1.727-8.661 .978-8.224 .32-7.673-.231-7.123-.782-6.47-1.219-5.732-1.53-4.992-1.84-4.18-1.997-3.317-1.997-2.984-1.997-2.604-1.973-2.156-1.922-1.724-1.872-1.292-1.795-.872-1.697-.444-1.595-.076-1.475 .224-1.34L.333-1.29 .458 .053H.059Z" fill="#3b3b3c"/>
<path transform="matrix(1,0,0,-1,401.0392,323.1619)" d="M0 0 1.232 4.129 2.716 0ZM.919 5.702-3.419-6.179H-1.836L-.232-.805H3.004L4.934-6.179H6.509L2.171 5.702Z" fill="#3b3b3c"/>
<path transform="matrix(1,0,0,-1,409.8171,328.5924)" d="M0 0V11.133H-1.47V-.749H3.519V.533L.697 .085C.413 .042 .179 .013 0 0" fill="#3b3b3c"/>
<path transform="matrix(1,0,0,-1,419.3286,323.5732)" d="M0 0H1.258C3.037 0 3.901-.811 3.901-2.482 3.901-4.152 3.037-4.963 1.258-4.963H0ZM3.154 3.057C3.154 1.542 2.416 .805 .9 .805H0V5.31H.915C2.421 5.31 3.154 4.573 3.154 3.057M2.993 .54C3.428 .731 3.787 1.001 4.065 1.348 4.456 1.836 4.655 2.434 4.655 3.123 4.655 4.06 4.314 4.804 3.642 5.334 2.984 5.852 2.061 6.113 .9 6.113H-1.47V-5.768H1.258C2.553-5.768 3.58-5.484 4.31-4.921 5.055-4.348 5.433-3.544 5.433-2.531 5.433-1.673 5.16-.95 4.622-.382 4.204 .056 3.658 .366 2.993 .54" fill="#3b3b3c"/>
<path transform="matrix(1,0,0,-1,427.9998,328.5924)" d="M0 0V11.133H-1.47V-.749H3.519V.533L.697 .085C.413 .042 .179 .013 0 0" fill="#3b3b3c"/>
<path transform="matrix(1,0,0,-1,433.9273,326.2419)" d="M0 0C-.361 .807-.543 1.763-.543 2.842-.543 3.92-.358 4.876 .006 5.681 .369 6.48 .875 7.108 1.509 7.548 2.139 7.985 2.888 8.207 3.735 8.207 4.58 8.207 5.332 7.982 5.968 7.54 6.607 7.093 7.114 6.464 7.47 5.667 7.83 4.862 8.012 3.912 8.012 2.842 8.012 1.772 7.83 .819 7.47 .008 7.113-.795 6.607-1.425 5.969-1.865 5.333-2.302 4.581-2.524 3.735-2.524 2.888-2.524 2.137-2.302 1.501-1.865 .861-1.425 .357-.797 0 0M7.924 7.235C7.393 7.794 6.762 8.234 6.051 8.544 4.627 9.164 2.842 9.164 1.419 8.544 .707 8.234 .076 7.794-.455 7.235-.984 6.679-1.401 6.017-1.695 5.268-1.989 4.521-2.138 3.705-2.138 2.842-2.138 1.979-1.989 1.162-1.695 .415-1.403-.331-.985-.993-.455-1.552 .075-2.11 .705-2.55 1.419-2.86 2.133-3.172 2.912-3.329 3.735-3.329 4.557-3.329 5.337-3.172 6.051-2.86 6.764-2.55 7.395-2.11 7.924-1.552 8.454-.993 8.872-.331 9.164 .415 9.458 1.162 9.607 1.979 9.607 2.842 9.607 3.705 9.458 4.521 9.164 5.268 8.87 6.017 8.454 6.679 7.924 7.235" fill="#3b3b3c"/>
<path transform="matrix(1,0,0,-1,446.8176,326.2419)" d="M0 0C-.361 .807-.543 1.763-.543 2.842-.543 3.92-.358 4.876 .006 5.681 .369 6.48 .875 7.108 1.509 7.548 2.139 7.985 2.888 8.207 3.735 8.207 4.58 8.207 5.332 7.982 5.968 7.54 6.607 7.093 7.114 6.464 7.47 5.667 7.83 4.862 8.012 3.912 8.012 2.842 8.012 1.772 7.83 .819 7.47 .008 7.113-.795 6.607-1.425 5.969-1.865 5.333-2.302 4.581-2.524 3.735-2.524 2.888-2.524 2.137-2.302 1.501-1.865 .861-1.425 .357-.797 0 0M7.924 7.235C7.393 7.794 6.763 8.234 6.051 8.544 4.627 9.164 2.842 9.164 1.419 8.544 .707 8.234 .076 7.794-.455 7.235-.984 6.679-1.401 6.017-1.695 5.268-1.989 4.521-2.138 3.705-2.138 2.842-2.138 1.979-1.989 1.162-1.695 .415-1.403-.331-.985-.993-.455-1.552 .075-2.11 .705-2.55 1.419-2.86 2.133-3.172 2.912-3.329 3.735-3.329 4.557-3.329 5.337-3.172 6.051-2.86 6.764-2.55 7.395-2.11 7.924-1.552 8.454-.993 8.872-.331 9.164 .415 9.458 1.162 9.607 1.979 9.607 2.842 9.607 3.705 9.458 4.521 9.164 5.268 8.87 6.017 8.454 6.679 7.924 7.235" fill="#3b3b3c"/>
<path transform="matrix(1,0,0,-1,467.3007,317.4598)" d="M0 0-3.609-7.309-8.369 .135-8.43 .23H-9.054L-9.456-11.881H-7.972L-8.301-2.648-4.327-8.87-4.266-8.965H-3.543L-.015-1.846V-11.881H1.455V0Z" fill="#3b3b3c"/>
<path transform="matrix(1,0,0,-1,367.4688,339.7233)" d="M0 0C0-.068-.007-.186-.045-.269H-.844C-1.016-.186-1.278 .143-1.427 .358L-2.818 2.324-3.505 1.704V.135C-3.221 .083-2.915 .023-2.915 0-2.915-.068-2.922-.186-2.96-.269H-4.514C-4.544-.186-4.552-.052-4.514-.008-4.492 .023-4.275 .083-4.186 .104-4.103 .126-4.058 .143-4.051 .195-4.036 .396-4.036 .837-4.036 .911V4.409C-4.313 4.454-4.559 4.523-4.559 4.544-4.559 4.612-4.552 4.732-4.514 4.813H-3.027C-2.997 4.732-2.99 4.597-3.027 4.552-3.049 4.523-3.259 4.463-3.356 4.44-3.438 4.417-3.483 4.403-3.49 4.351-3.505 4.148-3.505 3.707-3.505 3.632V2.191L-1.36 4.365V4.394C-1.562 4.44-1.831 4.523-1.831 4.544-1.831 4.612-1.823 4.732-1.786 4.813H-.231C-.194 4.769-.201 4.589-.239 4.529-.351 4.492-.501 4.454-.56 4.44-.59 4.432-.65 4.388-.71 4.343-1.001 4.096-1.338 3.759-1.547 3.55-1.742 3.357-2.093 3.013-2.504 2.624-2.332 2.421-2.108 2.16-1.921 1.913L-.762 .389C-.65 .246-.546 .135-.478 .12-.329 .089 0 .023 0 0" fill="#3b3b3c"/>
<path transform="matrix(1,0,0,-1,370.1432,339.6941)" d="M0 0C1.166 0 1.794 .859 1.794 2.251 1.794 3.64 1.166 4.485 0 4.485-1.166 4.485-1.794 3.64-1.794 2.251-1.794 .859-1.166 0 0 0M-2.355 2.251C-2.355 3.864-1.525 4.918 .007 4.918 1.54 4.918 2.354 3.864 2.354 2.251 2.354 .636 1.54-.433 .007-.433-1.525-.433-2.355 .636-2.355 2.251" fill="#3b3b3c"/>
<path transform="matrix(1,0,0,-1,374.8206,337.3915)" d="M0 0C.269 0 .703 0 1.061 .217 1.263 .337 1.532 .568 1.532 1.039 1.532 1.51 1.3 1.756 1.129 1.876 .815 2.093 .284 2.093-.12 2.093H-.576V0ZM2.825-2.355V-2.601H2.377C2.22-2.601 2.04-2.564 1.898-2.458 1.637-2.257 1.427-1.922 1.278-1.63L.605-.298C.351-.336 .179-.344-.105-.344H-.576V-2.197C-.284-2.249-.037-2.317-.037-2.34-.037-2.406-.045-2.518-.082-2.601H-1.585C-1.615-2.518-1.622-2.384-1.585-2.34-1.562-2.309-1.345-2.249-1.256-2.228-1.174-2.205-1.129-2.189-1.121-2.137-1.106-2.048-1.106-1.487-1.106-1.42V2.077C-1.383 2.123-1.63 2.191-1.63 2.212-1.63 2.28-1.622 2.4-1.585 2.481H-.239C.351 2.481 .882 2.481 1.36 2.265 1.816 2.056 2.085 1.727 2.085 1.151 2.085 .47 1.704 .045 1.084-.18V-.217L1.868-1.592C2.085-1.973 2.407-2.228 2.796-2.317 2.825-2.324 2.825-2.34 2.825-2.355" fill="#3b3b3c"/>
<path transform="matrix(1,0,0,-1,381.6806,338.8039)" d="M0 0C.09 0 .217-.045 .284-.083L.217-1.226C.112-1.226-.037-1.218-.165-1.189H-3.498C-3.528-1.106-3.535-.971-3.498-.928-3.476-.897-3.259-.837-3.169-.816-3.087-.793-3.042-.777-3.035-.725-3.02-.524-3.02-.083-3.02-.008V3.49C-3.296 3.535-3.543 3.603-3.543 3.624-3.543 3.692-3.535 3.812-3.498 3.893H-.157C-.03 3.893 .12 3.91 .224 3.931L.284 2.856C.217 2.818 .09 2.773 0 2.773-.022 2.773-.18 3.266-.254 3.506H-1.659L-2.489 3.52V1.592H-.68C-.635 1.845-.568 2.093-.546 2.093-.478 2.093-.381 2.085-.299 2.048V.762C-.381 .733-.516 .725-.561 .762-.591 .785-.65 .971-.673 1.077-.688 1.158-.71 1.211-.763 1.218-.964 1.232-1.353 1.232-1.428 1.232H-2.489V-.816L-1.652-.799H-.261C-.09-.149-.022 0 0 0" fill="#3b3b3c"/>
<path transform="matrix(1,0,0,-1,385.6409,338.0044)" d="M0 0-.411 1.122-.874 2.481H-.972L-1.42 1.129-1.816 0ZM1.599-1.988H.037C0-1.905-.008-1.779-.008-1.711-.008-1.69 .299-1.607 .568-1.555L.127-.358H-1.936L-2.37-1.584C-2.108-1.622-1.809-1.696-1.809-1.719-1.809-1.787-1.816-1.905-1.854-1.988H-3.296C-3.326-1.905-3.334-1.748-3.296-1.704-3.274-1.673-3.072-1.615-2.982-1.592-2.93-1.576-2.915-1.57-2.892-1.532-2.825-1.398-2.579-.777-2.429-.381L-1.129 3.057C-1.032 3.087-.889 3.169-.807 3.229-.755 3.237-.71 3.237-.658 3.229L.74-.418 1.144-1.495C1.159-1.547 1.211-1.57 1.285-1.592 1.368-1.615 1.577-1.673 1.599-1.704 1.629-1.748 1.622-1.905 1.599-1.988" fill="#3b3b3c"/>
<path transform="matrix(1,0,0,-1,392.7324,335.1716)" d="M0 0C-.023-.029-.239-.089-.329-.112-.411-.135-.456-.149-.463-.201-.478-.404-.478-.859-.478-.942V-2.414C-.478-2.885-.493-3.796-.508-4.231L-.531-4.821H-.778L-4.089-.762C-4.074-1.211-4.066-1.727-4.066-2.071V-4.417C-3.79-4.463-3.543-4.529-3.543-4.552-3.543-4.62-3.55-4.738-3.588-4.821H-4.963C-4.993-4.738-5-4.604-4.963-4.56-4.94-4.529-4.724-4.469-4.634-4.448-4.552-4.425-4.507-4.409-4.5-4.357-4.485-4.156-4.485-3.7-4.485-3.618V-2.071C-4.485-1.615-4.462-.814-4.448-.373L-4.627-.149-5.105-.045C-5.135 .015-5.127 .18-5.105 .261H-4.238L-.882-3.856C-.897-3.378-.897-2.75-.897-2.414V-.143C-1.174-.097-1.42-.029-1.42-.008-1.42 .06-1.413 .18-1.375 .261H0C.03 .18 .037 .045 0 0" fill="#3b3b3c"/>
<path transform="matrix(1,0,0,-1,400.944,336.8758)" d="M0 0V-1.891C0-1.973 0-2.429 .015-2.63 .023-2.684 .067-2.698 .15-2.721 .239-2.744 .456-2.802 .478-2.833 .516-2.877 .508-3.034 .478-3.117H-1.016C-1.054-3.034-1.061-2.916-1.054-2.847-1.054-2.825-.785-2.758-.508-2.713V-.255C-.508 .18-.501 .584-.486 1.009L-2.377-3.117H-2.773L-4.656 .957C-4.641 .486-4.634-.066-4.634-.366V-2.713C-4.358-2.758-4.111-2.825-4.111-2.847-4.111-2.916-4.118-3.034-4.156-3.117H-5.531C-5.561-3.034-5.568-2.899-5.531-2.856-5.508-2.825-5.292-2.765-5.202-2.744-5.12-2.721-5.075-2.705-5.067-2.653-5.052-2.452-5.052-1.996-5.052-1.913V-.366C-5.052 .105-5.03 1.002-5.015 1.435L-5.075 1.54-5.695 1.659C-5.725 1.719-5.718 1.884-5.695 1.965H-4.537L-2.511-2.415-.493 1.965H.613C.65 1.884 .658 1.772 .658 1.696 .658 1.675 .329 1.6 .09 1.555L-.015 1.412C0 .965 0 .509 0 0" fill="#3b3b3c"/>
<path transform="matrix(1,0,0,-1,405.7255,338.8039)" d="M0 0C.09 0 .217-.045 .284-.083L.217-1.226C.112-1.226-.037-1.218-.165-1.189H-3.498C-3.528-1.106-3.535-.971-3.498-.928-3.476-.897-3.259-.837-3.169-.816-3.087-.793-3.042-.777-3.035-.725-3.02-.524-3.02-.083-3.02-.008V3.49C-3.296 3.535-3.543 3.603-3.543 3.624-3.543 3.692-3.535 3.812-3.498 3.893H-.157C-.03 3.893 .12 3.91 .224 3.931L.284 2.856C.217 2.818 .09 2.773 0 2.773-.022 2.773-.18 3.266-.254 3.506H-1.659L-2.489 3.52V1.592H-.68C-.635 1.845-.568 2.093-.546 2.093-.478 2.093-.381 2.085-.299 2.048V.762C-.381 .733-.516 .725-.561 .762-.591 .785-.65 .971-.673 1.077-.688 1.158-.71 1.211-.763 1.218-.964 1.232-1.353 1.232-1.428 1.232H-2.489V-.816L-1.652-.799H-.261C-.09-.149-.022 0 0 0" fill="#3b3b3c"/>
<path transform="matrix(1,0,0,-1,408.6095,339.6033)" d="M0 0C1.226 0 2.198 .785 2.198 2.129 2.198 2.839 1.996 3.452 1.51 3.841 .927 4.305 .321 4.305-.254 4.305H-.957V0ZM2.758 2.243C2.758 1.36 2.37 .568 1.734 .118 1.061-.352 .359-.389 .157-.389H-1.951C-1.981-.306-1.988-.172-1.951-.128-1.928-.097-1.727-.037-1.637-.016-1.555 .006-1.51 .023-1.502 .075-1.487 .276-1.487 .636-1.487 .791V4.289C-1.742 4.334-1.988 4.403-1.988 4.424-1.988 4.492-1.981 4.612-1.943 4.693H-.284C.291 4.693 1.136 4.693 1.838 4.185 2.429 3.759 2.758 3.071 2.758 2.243" fill="#3b3b3c"/>
<path transform="matrix(1,0,0,-1,412.0837,339.73139)" d="M0 0C.022 .031 .254 .091 .344 .112 .426 .135 .471 .151 .478 .203 .493 .404 .493 .845 .493 .919V4.417C.216 4.463-.045 4.531-.045 4.552-.045 4.62-.037 4.74 0 4.821H1.517C1.547 4.74 1.554 4.605 1.517 4.56 1.495 4.531 1.271 4.471 1.173 4.448 1.091 4.425 1.046 4.411 1.039 4.359 1.024 4.156 1.024 3.715 1.024 3.64V.143C1.301 .097 1.562 .031 1.562 .008 1.562-.06 1.554-.178 1.517-.261H0C-.03-.178-.037-.044 0 0" fill="#3b3b3c"/>
<path transform="matrix(1,0,0,-1,417.9951,339.2741)" d="M0 0 .344 .739C.463 .754 .576 .702 .635 .65L.418-.412C-.083-.71-.755-.853-1.308-.853-2.886-.853-3.678 .29-3.678 1.808-3.678 3.564-2.616 4.498-1.189 4.498-.785 4.498-.411 4.424-.105 4.32 .202 4.214 .388 4.103 .546 3.991V2.989C.463 2.966 .351 2.945 .284 2.966 .239 3.289 .112 3.579-.067 3.744-.322 3.976-.77 4.094-1.189 4.094-2.332 4.094-3.117 3.251-3.117 1.816-3.117 .418-2.362-.449-1.233-.449-.748-.449-.255-.277 0 0" fill="#3b3b3c"/>
<path transform="matrix(1,0,0,-1,419.2712,339.73139)" d="M0 0C.023 .031 .255 .091 .344 .112 .426 .135 .471 .151 .478 .203 .494 .404 .494 .845 .494 .919V4.417C.217 4.463-.045 4.531-.045 4.552-.045 4.62-.037 4.74 0 4.821H1.518C1.548 4.74 1.555 4.605 1.518 4.56 1.495 4.531 1.271 4.471 1.174 4.448 1.091 4.425 1.047 4.411 1.039 4.359 1.024 4.156 1.024 3.715 1.024 3.64V.143C1.301 .097 1.562 .031 1.562 .008 1.562-.06 1.555-.178 1.518-.261H0C-.03-.178-.037-.044 0 0" fill="#3b3b3c"/>
<path transform="matrix(1,0,0,-1,426.5439,335.1716)" d="M0 0C-.023-.029-.239-.089-.329-.112-.411-.135-.456-.149-.464-.201-.478-.404-.478-.859-.478-.942V-2.414C-.478-2.885-.494-3.796-.508-4.231L-.531-4.821H-.778L-4.089-.762C-4.074-1.211-4.066-1.727-4.066-2.071V-4.417C-3.79-4.463-3.543-4.529-3.543-4.552-3.543-4.62-3.55-4.738-3.588-4.821H-4.964C-4.993-4.738-5.001-4.604-4.964-4.56-4.941-4.529-4.724-4.469-4.634-4.448-4.553-4.425-4.507-4.409-4.5-4.357-4.485-4.156-4.485-3.7-4.485-3.618V-2.071C-4.485-1.615-4.463-.814-4.448-.373L-4.627-.149-5.105-.045C-5.135 .015-5.127 .18-5.105 .261H-4.238L-.882-3.856C-.898-3.378-.898-2.75-.898-2.414V-.143C-1.174-.097-1.42-.029-1.42-.008-1.42 .06-1.413 .18-1.376 .261H0C.03 .18 .037 .045 0 0" fill="#3b3b3c"/>
<path transform="matrix(1,0,0,-1,430.6903,338.8039)" d="M0 0C.089 0 .216-.045 .284-.083L.216-1.226C.112-1.226-.037-1.218-.165-1.189H-3.499C-3.529-1.106-3.536-.971-3.499-.928-3.476-.897-3.259-.837-3.169-.816-3.087-.793-3.042-.777-3.035-.725-3.02-.524-3.02-.083-3.02-.008V3.49C-3.297 3.535-3.543 3.603-3.543 3.624-3.543 3.692-3.536 3.812-3.499 3.893H-.157C-.03 3.893 .119 3.91 .224 3.931L.284 2.856C.216 2.818 .089 2.773 0 2.773-.023 2.773-.18 3.266-.255 3.506H-1.66L-2.489 3.52V1.592H-.68C-.636 1.845-.568 2.093-.546 2.093-.478 2.093-.381 2.085-.299 2.048V.762C-.381 .733-.516 .725-.561 .762-.591 .785-.65 .971-.673 1.077-.688 1.158-.71 1.211-.763 1.218-.965 1.232-1.353 1.232-1.428 1.232H-2.489V-.816L-1.652-.799H-.262C-.09-.149-.023 0 0 0" fill="#3b3b3c"/>
<path transform="matrix(1,0,0,-1,437.243,339.2741)" d="M0 0 .344 .739C.464 .754 .576 .702 .636 .65L.419-.412C-.082-.71-.755-.853-1.308-.853-2.885-.853-3.677 .29-3.677 1.808-3.677 3.564-2.616 4.498-1.188 4.498-.785 4.498-.411 4.424-.105 4.32 .202 4.214 .389 4.103 .546 3.991V2.989C.464 2.966 .352 2.945 .285 2.966 .239 3.289 .113 3.579-.067 3.744-.321 3.976-.769 4.094-1.188 4.094-2.332 4.094-3.117 3.251-3.117 1.816-3.117 .418-2.362-.449-1.233-.449-.748-.449-.254-.277 0 0" fill="#3b3b3c"/>
<path transform="matrix(1,0,0,-1,438.52,339.73139)" d="M0 0C.022 .031 .239 .091 .328 .112 .411 .135 .456 .151 .463 .203 .478 .404 .478 .845 .478 .919V4.417C.202 4.463-.045 4.531-.045 4.552-.045 4.62-.037 4.74 0 4.821H1.487C1.517 4.74 1.524 4.605 1.487 4.56 1.465 4.531 1.256 4.471 1.159 4.448 1.076 4.425 1.031 4.411 1.024 4.359 1.009 4.156 1.009 3.715 1.009 3.64V.112L1.846 .128H3.237C3.296 .366 3.476 .994 3.498 .994 3.588 .994 3.707 .957 3.782 .913L3.715-.298C3.61-.298 3.46-.29 3.333-.261H0C-.03-.178-.037-.044 0 0" fill="#3b3b3c"/>
<path transform="matrix(1,0,0,-1,442.8982,339.73139)" d="M0 0C.023 .031 .255 .091 .344 .112 .426 .135 .471 .151 .478 .203 .494 .404 .494 .845 .494 .919V4.417C.217 4.463-.045 4.531-.045 4.552-.045 4.62-.037 4.74 0 4.821H1.518C1.548 4.74 1.555 4.605 1.518 4.56 1.495 4.531 1.271 4.471 1.174 4.448 1.091 4.425 1.047 4.411 1.039 4.359 1.024 4.156 1.024 3.715 1.024 3.64V.143C1.3 .097 1.562 .031 1.562 .008 1.562-.06 1.555-.178 1.518-.261H0C-.03-.178-.037-.044 0 0" fill="#3b3b3c"/>
<path transform="matrix(1,0,0,-1,450.1701,335.1716)" d="M0 0C-.023-.029-.239-.089-.328-.112-.411-.135-.456-.149-.463-.201-.478-.404-.478-.859-.478-.942V-2.414C-.478-2.885-.493-3.796-.508-4.231L-.53-4.821H-.778L-4.089-.762C-4.073-1.211-4.066-1.727-4.066-2.071V-4.417C-3.79-4.463-3.543-4.529-3.543-4.552-3.543-4.62-3.55-4.738-3.588-4.821H-4.963C-4.993-4.738-5-4.604-4.963-4.56-4.94-4.529-4.724-4.469-4.634-4.448-4.552-4.425-4.507-4.409-4.5-4.357-4.484-4.156-4.484-3.7-4.484-3.618V-2.071C-4.484-1.615-4.462-.814-4.447-.373L-4.626-.149-5.105-.045C-5.135 .015-5.127 .18-5.105 .261H-4.238L-.882-3.856C-.897-3.378-.897-2.75-.897-2.414V-.143C-1.173-.097-1.42-.029-1.42-.008-1.42 .06-1.412 .18-1.375 .261H0C.03 .18 .037 .045 0 0" fill="#3b3b3c"/>
<path transform="matrix(1,0,0,-1,450.8187,339.73139)" d="M0 0C.023 .031 .255 .091 .344 .112 .426 .135 .471 .151 .478 .203 .494 .404 .494 .845 .494 .919V4.417C.217 4.463-.045 4.531-.045 4.552-.045 4.62-.037 4.74 0 4.821H1.518C1.548 4.74 1.555 4.605 1.518 4.56 1.495 4.531 1.271 4.471 1.174 4.448 1.091 4.425 1.047 4.411 1.039 4.359 1.024 4.156 1.024 3.715 1.024 3.64V.143C1.301 .097 1.562 .031 1.562 .008 1.562-.06 1.555-.178 1.518-.261H0C-.03-.178-.037-.044 0 0" fill="#3b3b3c"/>
<path transform="matrix(1,0,0,-1,456.7301,339.2741)" d="M0 0 .344 .739C.464 .754 .576 .702 .636 .65L.419-.412C-.082-.71-.755-.853-1.308-.853-2.885-.853-3.677 .29-3.677 1.808-3.677 3.564-2.616 4.498-1.188 4.498-.785 4.498-.411 4.424-.105 4.32 .202 4.214 .389 4.103 .546 3.991V2.989C.464 2.966 .352 2.945 .285 2.966 .239 3.289 .113 3.579-.067 3.744-.321 3.976-.769 4.094-1.188 4.094-2.332 4.094-3.117 3.251-3.117 1.816-3.117 .418-2.362-.449-1.233-.449-.748-.449-.254-.277 0 0" fill="#3b3b3c"/>
<path transform="matrix(1,0,0,-1,414.2075,282.0117)" d="M0 0H12.873C16.208 0 18.922-2.713 18.922-6.048 18.922-6.781 18.777-7.486 18.533-8.146ZM9.338-15.631C9.338-17.916 8.05-19.885 6.176-20.914L-1.764-2.848 9.338-13.951ZM-2.759-15.631V-2.759L5.384-21.284C4.729-21.528 4.029-21.68 3.29-21.68-.045-21.68-2.759-18.966-2.759-15.631M-11.43-21.68C-12.163-21.68-12.867-21.536-13.527-21.291L-5.38-2.757V-15.631C-5.38-18.966-8.094-21.68-11.43-21.68M-19.332-12.097H-21.012C-23.297-12.097-25.266-10.809-26.295-8.935L-8.228-.994ZM-21.012 0H-8.14L-26.666-8.143C-26.909-7.488-27.062-6.788-27.062-6.048-27.062-2.713-24.348 0-21.012 0M-27.062 8.671C-27.062 9.404-26.917 10.108-26.672 10.768L-8.138 2.622H-21.012C-24.348 2.622-27.062 5.336-27.062 8.671M-17.478 18.254C-17.478 20.538-16.19 22.507-14.316 23.536L-6.376 5.471-17.478 16.573ZM-5.38 18.254V5.379L-13.524 23.906C-12.869 24.15-12.169 24.302-11.43 24.302-8.094 24.302-5.38 21.589-5.38 18.254M3.29 24.302C4.023 24.302 4.727 24.158 5.387 23.913L-2.759 5.381V18.254C-2.759 21.589-.045 24.302 3.29 24.302M11.192 14.72H12.873C15.157 14.72 17.126 13.432 18.155 11.558L.091 3.618ZM12.873 2.622H-.002L18.526 10.765C18.77 10.11 18.922 9.41 18.922 8.671 18.922 5.336 16.208 2.622 12.873 2.622M17.434 1.311C19.896 2.843 21.544 5.565 21.544 8.671 21.544 13.452 17.654 17.341 12.873 17.341H10.649C10.302 17.341 9.968 17.203 9.722 16.957L-1.765 5.469 6.184 23.553C7.482 22.844 8.514 21.678 9.015 20.214 9.249 19.53 9.996 19.161 10.679 19.398 11.365 19.632 11.73 20.378 11.495 21.062 10.295 24.568 6.998 26.924 3.29 26.924 .184 26.924-2.538 25.277-4.07 22.815-5.601 25.277-8.323 26.924-11.43 26.924-16.211 26.924-20.1 23.035-20.1 18.254V16.03C-20.1 15.683-19.962 15.349-19.716 15.104L-8.229 3.617-26.312 11.565C-25.603 12.862-24.437 13.894-22.973 14.395-22.288 14.63-21.923 15.375-22.158 16.06-22.391 16.745-23.137 17.115-23.823 16.875-27.328 15.675-29.683 12.379-29.683 8.671-29.683 5.565-28.036 2.843-25.574 1.311-28.036-.22-29.683-2.942-29.683-6.048-29.683-10.83-25.793-14.719-21.012-14.719H-18.789C-18.442-14.719-18.108-14.581-17.862-14.335L-6.376-2.85-14.324-20.931C-15.621-20.222-16.653-19.056-17.154-17.592-17.388-16.907-18.134-16.537-18.819-16.776-19.503-17.011-19.869-17.756-19.634-18.441-18.434-21.947-15.137-24.302-11.43-24.302-8.323-24.302-5.601-22.655-4.07-20.193-2.538-22.655 .184-24.302 3.29-24.302 8.071-24.302 11.96-20.412 11.96-15.631V-13.408C11.96-13.06 11.822-12.727 11.576-12.481L.09-.994 18.172-8.942C17.464-10.24 16.297-11.272 14.833-11.773 14.148-12.008 13.783-12.753 14.018-13.439 14.252-14.122 14.995-14.491 15.683-14.254 19.188-13.054 21.544-9.756 21.544-6.048 21.544-2.942 19.896-.22 17.434 1.311" fill="#393a3a"/>
<path transform="matrix(1,0,0,-1,172.1625,282.0117)" d="M0 0H12.873C16.208 0 18.922-2.713 18.922-6.048 18.922-6.781 18.777-7.486 18.533-8.146ZM9.338-15.631C9.338-17.916 8.05-19.885 6.176-20.914L-1.764-2.848 9.338-13.951ZM-2.759-15.631V-2.759L5.384-21.284C4.729-21.528 4.029-21.68 3.29-21.68-.045-21.68-2.759-18.966-2.759-15.631M-11.43-21.68C-12.163-21.68-12.867-21.536-13.527-21.291L-5.38-2.757V-15.631C-5.38-18.966-8.094-21.68-11.43-21.68M-19.332-12.097H-21.012C-23.297-12.097-25.266-10.809-26.295-8.935L-8.228-.994ZM-21.012 0H-8.14L-26.666-8.143C-26.909-7.488-27.062-6.788-27.062-6.048-27.062-2.713-24.348 0-21.012 0M-27.062 8.671C-27.062 9.404-26.917 10.108-26.672 10.768L-8.138 2.622H-21.012C-24.348 2.622-27.062 5.336-27.062 8.671M-17.478 18.254C-17.478 20.538-16.19 22.507-14.316 23.536L-6.376 5.471-17.478 16.573ZM-5.38 18.254V5.379L-13.524 23.906C-12.869 24.15-12.169 24.302-11.43 24.302-8.094 24.302-5.38 21.589-5.38 18.254M3.29 24.302C4.023 24.302 4.727 24.158 5.387 23.913L-2.759 5.381V18.254C-2.759 21.589-.045 24.302 3.29 24.302M11.192 14.72H12.873C15.157 14.72 17.126 13.432 18.155 11.558L.091 3.618ZM12.873 2.622H-.002L18.526 10.765C18.77 10.11 18.922 9.41 18.922 8.671 18.922 5.336 16.208 2.622 12.873 2.622M17.434 1.311C19.896 2.843 21.544 5.565 21.544 8.671 21.544 13.452 17.654 17.341 12.873 17.341H10.649C10.302 17.341 9.968 17.203 9.722 16.957L-1.765 5.469 6.184 23.553C7.482 22.844 8.514 21.678 9.015 20.214 9.249 19.53 9.996 19.161 10.679 19.398 11.365 19.632 11.73 20.378 11.495 21.062 10.295 24.568 6.998 26.924 3.29 26.924 .184 26.924-2.538 25.277-4.07 22.815-5.601 25.277-8.323 26.924-11.43 26.924-16.211 26.924-20.1 23.035-20.1 18.254V16.03C-20.1 15.683-19.962 15.349-19.716 15.104L-8.229 3.617-26.312 11.565C-25.603 12.862-24.437 13.894-22.973 14.395-22.288 14.63-21.923 15.375-22.158 16.06-22.391 16.745-23.137 17.115-23.823 16.875-27.328 15.675-29.683 12.379-29.683 8.671-29.683 5.565-28.036 2.843-25.574 1.311-28.036-.22-29.683-2.942-29.683-6.048-29.683-10.83-25.793-14.719-21.012-14.719H-18.789C-18.442-14.719-18.108-14.581-17.862-14.335L-6.376-2.85-14.324-20.931C-15.621-20.222-16.653-19.056-17.154-17.592-17.388-16.907-18.134-16.537-18.819-16.776-19.503-17.011-19.869-17.756-19.634-18.441-18.434-21.947-15.137-24.302-11.43-24.302-8.323-24.302-5.601-22.655-4.07-20.193-2.538-22.655 .184-24.302 3.29-24.302 8.071-24.302 11.96-20.412 11.96-15.631V-13.408C11.96-13.06 11.822-12.727 11.576-12.481L.09-.994 18.172-8.942C17.464-10.24 16.297-11.272 14.833-11.773 14.148-12.008 13.783-12.753 14.018-13.439 14.252-14.122 14.995-14.491 15.683-14.254 19.188-13.054 21.544-9.756 21.544-6.048 21.544-2.942 19.896-.22 17.434 1.311" fill="#393a3a"/>
<path transform="matrix(1,0,0,-1,609.5138,339.7233)" d="M0 0C0-.068-.007-.186-.045-.269H-.844C-1.016-.186-1.278 .143-1.427 .358L-2.818 2.324-3.505 1.704V.135C-3.221 .083-2.915 .023-2.915 0-2.915-.068-2.922-.186-2.96-.269H-4.514C-4.544-.186-4.552-.052-4.514-.008-4.492 .023-4.275 .083-4.186 .104-4.103 .126-4.058 .143-4.051 .195-4.036 .396-4.036 .837-4.036 .911V4.409C-4.313 4.454-4.559 4.523-4.559 4.544-4.559 4.612-4.552 4.732-4.514 4.813H-3.027C-2.997 4.732-2.99 4.597-3.027 4.552-3.049 4.523-3.259 4.463-3.356 4.44-3.438 4.417-3.483 4.403-3.49 4.351-3.505 4.148-3.505 3.707-3.505 3.632V2.191L-1.36 4.365V4.394C-1.562 4.44-1.831 4.523-1.831 4.544-1.831 4.612-1.823 4.732-1.786 4.813H-.232C-.194 4.769-.201 4.589-.239 4.529-.351 4.492-.501 4.454-.56 4.44-.59 4.432-.65 4.388-.71 4.343-1.001 4.096-1.338 3.759-1.547 3.55-1.742 3.357-2.093 3.013-2.504 2.624-2.332 2.421-2.108 2.16-1.921 1.913L-.762 .389C-.65 .246-.546 .135-.478 .12-.329 .089 0 .023 0 0" fill="#3b3b3c"/>
<path transform="matrix(1,0,0,-1,612.1881,339.6941)" d="M0 0C1.166 0 1.794 .859 1.794 2.251 1.794 3.64 1.166 4.485 0 4.485-1.166 4.485-1.794 3.64-1.794 2.251-1.794 .859-1.166 0 0 0M-2.354 2.251C-2.354 3.864-1.525 4.918 .007 4.918 1.54 4.918 2.355 3.864 2.355 2.251 2.355 .636 1.54-.433 .007-.433-1.525-.433-2.354 .636-2.354 2.251" fill="#3b3b3c"/>
<path transform="matrix(1,0,0,-1,616.8655,337.3915)" d="M0 0C.269 0 .703 0 1.061 .217 1.263 .337 1.532 .568 1.532 1.039 1.532 1.51 1.3 1.756 1.129 1.876 .815 2.093 .284 2.093-.12 2.093H-.576V0ZM2.825-2.355V-2.601H2.377C2.22-2.601 2.04-2.564 1.898-2.458 1.637-2.257 1.427-1.922 1.278-1.63L.605-.298C.351-.336 .179-.344-.105-.344H-.576V-2.197C-.284-2.249-.037-2.317-.037-2.34-.037-2.406-.045-2.518-.082-2.601H-1.585C-1.615-2.518-1.622-2.384-1.585-2.34-1.562-2.309-1.346-2.249-1.256-2.228-1.174-2.205-1.129-2.189-1.121-2.137-1.106-2.048-1.106-1.487-1.106-1.42V2.077C-1.383 2.123-1.63 2.191-1.63 2.212-1.63 2.28-1.622 2.4-1.585 2.481H-.239C.351 2.481 .882 2.481 1.36 2.265 1.816 2.056 2.085 1.727 2.085 1.151 2.085 .47 1.704 .045 1.084-.18V-.217L1.868-1.592C2.085-1.973 2.407-2.228 2.796-2.317 2.825-2.324 2.825-2.34 2.825-2.355" fill="#3b3b3c"/>
<path transform="matrix(1,0,0,-1,623.7255,338.8039)" d="M0 0C.09 0 .217-.045 .284-.083L.217-1.226C.112-1.226-.037-1.218-.165-1.189H-3.498C-3.528-1.106-3.535-.971-3.498-.928-3.476-.897-3.259-.837-3.169-.816-3.087-.793-3.042-.777-3.035-.725-3.02-.524-3.02-.083-3.02-.008V3.49C-3.296 3.535-3.543 3.603-3.543 3.624-3.543 3.692-3.535 3.812-3.498 3.893H-.157C-.03 3.893 .12 3.91 .224 3.931L.284 2.856C.217 2.818 .09 2.773 0 2.773-.022 2.773-.18 3.266-.254 3.506H-1.659L-2.489 3.52V1.592H-.68C-.635 1.845-.568 2.093-.546 2.093-.478 2.093-.381 2.085-.299 2.048V.762C-.381 .733-.516 .725-.561 .762-.591 .785-.65 .971-.673 1.077-.687 1.158-.71 1.211-.763 1.218-.964 1.232-1.353 1.232-1.428 1.232H-2.489V-.816L-1.652-.799H-.261C-.09-.149-.022 0 0 0" fill="#3b3b3c"/>
<path transform="matrix(1,0,0,-1,627.6858,338.0044)" d="M0 0-.411 1.122-.874 2.481H-.972L-1.42 1.129-1.816 0ZM1.599-1.988H.037C0-1.905-.008-1.779-.008-1.711-.008-1.69 .299-1.607 .568-1.555L.127-.358H-1.936L-2.37-1.584C-2.108-1.622-1.809-1.696-1.809-1.719-1.809-1.787-1.816-1.905-1.854-1.988H-3.296C-3.326-1.905-3.333-1.748-3.296-1.704-3.274-1.673-3.072-1.615-2.982-1.592-2.93-1.576-2.915-1.57-2.892-1.532-2.825-1.398-2.579-.777-2.429-.381L-1.129 3.057C-1.032 3.087-.889 3.169-.807 3.229-.755 3.237-.71 3.237-.658 3.229L.74-.418 1.144-1.495C1.159-1.547 1.211-1.57 1.286-1.592 1.368-1.615 1.577-1.673 1.599-1.704 1.629-1.748 1.622-1.905 1.599-1.988" fill="#3b3b3c"/>
<path transform="matrix(1,0,0,-1,634.7773,335.1716)" d="M0 0C-.023-.029-.239-.089-.329-.112-.411-.135-.456-.149-.463-.201-.478-.404-.478-.859-.478-.942V-2.414C-.478-2.885-.493-3.796-.508-4.231L-.531-4.821H-.778L-4.089-.762C-4.074-1.211-4.066-1.727-4.066-2.071V-4.417C-3.79-4.463-3.543-4.529-3.543-4.552-3.543-4.62-3.55-4.738-3.588-4.821H-4.963C-4.993-4.738-5-4.604-4.963-4.56-4.94-4.529-4.724-4.469-4.634-4.448-4.552-4.425-4.507-4.409-4.5-4.357-4.485-4.156-4.485-3.7-4.485-3.618V-2.071C-4.485-1.615-4.462-.814-4.448-.373L-4.627-.149-5.105-.045C-5.135 .015-5.127 .18-5.105 .261H-4.238L-.882-3.856C-.897-3.378-.897-2.75-.897-2.414V-.143C-1.174-.097-1.42-.029-1.42-.008-1.42 .06-1.413 .18-1.375 .261H0C.03 .18 .037 .045 0 0" fill="#3b3b3c"/>
<path transform="matrix(1,0,0,-1,642.9889,336.8758)" d="M0 0V-1.891C0-1.973 0-2.429 .015-2.63 .023-2.684 .067-2.698 .15-2.721 .239-2.744 .456-2.802 .478-2.833 .516-2.877 .508-3.034 .478-3.117H-1.016C-1.054-3.034-1.061-2.916-1.054-2.847-1.054-2.825-.785-2.758-.508-2.713V-.255C-.508 .18-.501 .584-.486 1.009L-2.377-3.117H-2.773L-4.656 .957C-4.641 .486-4.634-.066-4.634-.366V-2.713C-4.358-2.758-4.111-2.825-4.111-2.847-4.111-2.916-4.118-3.034-4.156-3.117H-5.531C-5.561-3.034-5.568-2.899-5.531-2.856-5.508-2.825-5.292-2.765-5.202-2.744-5.12-2.721-5.075-2.705-5.067-2.653-5.052-2.452-5.052-1.996-5.052-1.913V-.366C-5.052 .105-5.03 1.002-5.015 1.435L-5.075 1.54-5.695 1.659C-5.725 1.719-5.718 1.884-5.695 1.965H-4.537L-2.511-2.415-.493 1.965H.613C.65 1.884 .658 1.772 .658 1.696 .658 1.675 .329 1.6 .09 1.555L-.015 1.412C0 .965 0 .509 0 0" fill="#3b3b3c"/>
<path transform="matrix(1,0,0,-1,647.7704,338.8039)" d="M0 0C.09 0 .217-.045 .284-.083L.217-1.226C.112-1.226-.037-1.218-.165-1.189H-3.498C-3.528-1.106-3.535-.971-3.498-.928-3.476-.897-3.259-.837-3.169-.816-3.087-.793-3.042-.777-3.035-.725-3.02-.524-3.02-.083-3.02-.008V3.49C-3.296 3.535-3.543 3.603-3.543 3.624-3.543 3.692-3.535 3.812-3.498 3.893H-.157C-.03 3.893 .12 3.91 .224 3.931L.284 2.856C.217 2.818 .09 2.773 0 2.773-.022 2.773-.18 3.266-.254 3.506H-1.659L-2.489 3.52V1.592H-.68C-.635 1.845-.568 2.093-.546 2.093-.478 2.093-.381 2.085-.299 2.048V.762C-.381 .733-.516 .725-.561 .762-.591 .785-.65 .971-.673 1.077-.687 1.158-.71 1.211-.763 1.218-.964 1.232-1.353 1.232-1.428 1.232H-2.489V-.816L-1.652-.799H-.261C-.09-.149-.022 0 0 0" fill="#3b3b3c"/>
<path transform="matrix(1,0,0,-1,650.6544,339.6033)" d="M0 0C1.226 0 2.198 .785 2.198 2.129 2.198 2.839 1.996 3.452 1.51 3.841 .927 4.305 .321 4.305-.254 4.305H-.957V0ZM2.758 2.243C2.758 1.36 2.37 .568 1.734 .118 1.061-.352 .359-.389 .157-.389H-1.951C-1.981-.306-1.988-.172-1.951-.128-1.928-.097-1.727-.037-1.637-.016-1.555 .006-1.51 .023-1.502 .075-1.487 .276-1.487 .636-1.487 .791V4.289C-1.742 4.334-1.988 4.403-1.988 4.424-1.988 4.492-1.981 4.612-1.943 4.693H-.284C.291 4.693 1.136 4.693 1.838 4.185 2.429 3.759 2.758 3.071 2.758 2.243" fill="#3b3b3c"/>
<path transform="matrix(1,0,0,-1,654.1286,339.73139)" d="M0 0C.022 .031 .254 .091 .344 .112 .426 .135 .471 .151 .478 .203 .493 .404 .493 .845 .493 .919V4.417C.216 4.463-.045 4.531-.045 4.552-.045 4.62-.037 4.74 0 4.821H1.517C1.547 4.74 1.554 4.605 1.517 4.56 1.495 4.531 1.271 4.471 1.173 4.448 1.091 4.425 1.046 4.411 1.039 4.359 1.024 4.156 1.024 3.715 1.024 3.64V.143C1.3 .097 1.562 .031 1.562 .008 1.562-.06 1.554-.178 1.517-.261H0C-.03-.178-.037-.044 0 0" fill="#3b3b3c"/>
<path transform="matrix(1,0,0,-1,660.04,339.2741)" d="M0 0 .344 .739C.463 .754 .576 .702 .635 .65L.418-.412C-.083-.71-.755-.853-1.308-.853-2.886-.853-3.678 .29-3.678 1.808-3.678 3.564-2.616 4.498-1.189 4.498-.785 4.498-.411 4.424-.105 4.32 .202 4.214 .388 4.103 .546 3.991V2.989C.463 2.966 .351 2.945 .284 2.966 .239 3.289 .112 3.579-.067 3.744-.322 3.976-.77 4.094-1.189 4.094-2.332 4.094-3.117 3.251-3.117 1.816-3.117 .418-2.362-.449-1.233-.449-.748-.449-.255-.277 0 0" fill="#3b3b3c"/>
<path transform="matrix(1,0,0,-1,661.3162,339.73139)" d="M0 0C.023 .031 .255 .091 .344 .112 .427 .135 .471 .151 .478 .203 .494 .404 .494 .845 .494 .919V4.417C.217 4.463-.045 4.531-.045 4.552-.045 4.62-.037 4.74 0 4.821H1.518C1.548 4.74 1.555 4.605 1.518 4.56 1.495 4.531 1.271 4.471 1.174 4.448 1.091 4.425 1.047 4.411 1.039 4.359 1.024 4.156 1.024 3.715 1.024 3.64V.143C1.301 .097 1.562 .031 1.562 .008 1.562-.06 1.555-.178 1.518-.261H0C-.03-.178-.037-.044 0 0" fill="#3b3b3c"/>
<path transform="matrix(1,0,0,-1,668.5889,335.1716)" d="M0 0C-.023-.029-.239-.089-.329-.112-.411-.135-.456-.149-.464-.201-.478-.404-.478-.859-.478-.942V-2.414C-.478-2.885-.494-3.796-.508-4.231L-.531-4.821H-.778L-4.089-.762C-4.074-1.211-4.066-1.727-4.066-2.071V-4.417C-3.79-4.463-3.543-4.529-3.543-4.552-3.543-4.62-3.55-4.738-3.588-4.821H-4.964C-4.993-4.738-5.001-4.604-4.964-4.56-4.941-4.529-4.724-4.469-4.634-4.448-4.552-4.425-4.507-4.409-4.5-4.357-4.485-4.156-4.485-3.7-4.485-3.618V-2.071C-4.485-1.615-4.463-.814-4.448-.373L-4.627-.149-5.105-.045C-5.135 .015-5.127 .18-5.105 .261H-4.238L-.882-3.856C-.898-3.378-.898-2.75-.898-2.414V-.143C-1.174-.097-1.42-.029-1.42-.008-1.42 .06-1.413 .18-1.376 .261H0C.03 .18 .037 .045 0 0" fill="#3b3b3c"/>
<path transform="matrix(1,0,0,-1,672.7352,338.8039)" d="M0 0C.089 0 .216-.045 .284-.083L.216-1.226C.112-1.226-.037-1.218-.165-1.189H-3.499C-3.529-1.106-3.536-.971-3.499-.928-3.476-.897-3.259-.837-3.169-.816-3.087-.793-3.042-.777-3.035-.725-3.02-.524-3.02-.083-3.02-.008V3.49C-3.297 3.535-3.543 3.603-3.543 3.624-3.543 3.692-3.536 3.812-3.499 3.893H-.157C-.03 3.893 .119 3.91 .224 3.931L.284 2.856C.216 2.818 .089 2.773 0 2.773-.023 2.773-.18 3.266-.255 3.506H-1.66L-2.489 3.52V1.592H-.68C-.636 1.845-.568 2.093-.546 2.093-.478 2.093-.381 2.085-.299 2.048V.762C-.381 .733-.516 .725-.561 .762-.591 .785-.65 .971-.673 1.077-.688 1.158-.71 1.211-.763 1.218-.965 1.232-1.353 1.232-1.428 1.232H-2.489V-.816L-1.652-.799H-.262C-.09-.149-.023 0 0 0" fill="#3b3b3c"/>
<path transform="matrix(1,0,0,-1,679.288,339.2741)" d="M0 0 .344 .739C.464 .754 .576 .702 .636 .65L.419-.412C-.082-.71-.755-.853-1.308-.853-2.885-.853-3.677 .29-3.677 1.808-3.677 3.564-2.616 4.498-1.188 4.498-.785 4.498-.411 4.424-.105 4.32 .202 4.214 .389 4.103 .546 3.991V2.989C.464 2.966 .352 2.945 .285 2.966 .239 3.289 .113 3.579-.067 3.744-.321 3.976-.769 4.094-1.188 4.094-2.332 4.094-3.117 3.251-3.117 1.816-3.117 .418-2.362-.449-1.233-.449-.748-.449-.254-.277 0 0" fill="#3b3b3c"/>
<path transform="matrix(1,0,0,-1,680.5649,339.73139)" d="M0 0C.022 .031 .239 .091 .328 .112 .411 .135 .456 .151 .463 .203 .478 .404 .478 .845 .478 .919V4.417C.202 4.463-.045 4.531-.045 4.552-.045 4.62-.037 4.74 0 4.821H1.487C1.517 4.74 1.524 4.605 1.487 4.56 1.465 4.531 1.256 4.471 1.159 4.448 1.076 4.425 1.031 4.411 1.024 4.359 1.009 4.156 1.009 3.715 1.009 3.64V.112L1.846 .128H3.237C3.296 .366 3.476 .994 3.498 .994 3.588 .994 3.707 .957 3.782 .913L3.715-.298C3.61-.298 3.46-.29 3.333-.261H0C-.03-.178-.037-.044 0 0" fill="#3b3b3c"/>
<path transform="matrix(1,0,0,-1,684.9431,339.73139)" d="M0 0C.023 .031 .255 .091 .344 .112 .427 .135 .471 .151 .478 .203 .494 .404 .494 .845 .494 .919V4.417C.217 4.463-.045 4.531-.045 4.552-.045 4.62-.037 4.74 0 4.821H1.518C1.548 4.74 1.555 4.605 1.518 4.56 1.495 4.531 1.271 4.471 1.174 4.448 1.091 4.425 1.047 4.411 1.039 4.359 1.024 4.156 1.024 3.715 1.024 3.64V.143C1.301 .097 1.562 .031 1.562 .008 1.562-.06 1.555-.178 1.518-.261H0C-.03-.178-.037-.044 0 0" fill="#3b3b3c"/>
<path transform="matrix(1,0,0,-1,692.215,335.1716)" d="M0 0C-.023-.029-.239-.089-.328-.112-.411-.135-.456-.149-.463-.201-.478-.404-.478-.859-.478-.942V-2.414C-.478-2.885-.493-3.796-.508-4.231L-.53-4.821H-.778L-4.089-.762C-4.073-1.211-4.066-1.727-4.066-2.071V-4.417C-3.79-4.463-3.543-4.529-3.543-4.552-3.543-4.62-3.55-4.738-3.588-4.821H-4.963C-4.993-4.738-5-4.604-4.963-4.56-4.94-4.529-4.724-4.469-4.634-4.448-4.552-4.425-4.507-4.409-4.5-4.357-4.484-4.156-4.484-3.7-4.484-3.618V-2.071C-4.484-1.615-4.462-.814-4.447-.373L-4.626-.149-5.105-.045C-5.135 .015-5.127 .18-5.105 .261H-4.238L-.882-3.856C-.897-3.378-.897-2.75-.897-2.414V-.143C-1.173-.097-1.42-.029-1.42-.008-1.42 .06-1.412 .18-1.375 .261H0C.03 .18 .037 .045 0 0" fill="#3b3b3c"/>
<path transform="matrix(1,0,0,-1,692.8636,339.73139)" d="M0 0C.023 .031 .255 .091 .344 .112 .426 .135 .471 .151 .478 .203 .494 .404 .494 .845 .494 .919V4.417C.217 4.463-.045 4.531-.045 4.552-.045 4.62-.037 4.74 0 4.821H1.518C1.548 4.74 1.555 4.605 1.518 4.56 1.495 4.531 1.271 4.471 1.174 4.448 1.091 4.425 1.047 4.411 1.039 4.359 1.024 4.156 1.024 3.715 1.024 3.64V.143C1.3 .097 1.562 .031 1.562 .008 1.562-.06 1.555-.178 1.518-.261H0C-.03-.178-.037-.044 0 0" fill="#3b3b3c"/>
<path transform="matrix(1,0,0,-1,698.7751,339.2741)" d="M0 0 .344 .739C.464 .754 .576 .702 .636 .65L.419-.412C-.082-.71-.755-.853-1.308-.853-2.885-.853-3.677 .29-3.677 1.808-3.677 3.564-2.616 4.498-1.188 4.498-.785 4.498-.411 4.424-.105 4.32 .202 4.214 .389 4.103 .546 3.991V2.989C.464 2.966 .352 2.945 .285 2.966 .239 3.289 .113 3.579-.067 3.744-.321 3.976-.769 4.094-1.188 4.094-2.332 4.094-3.117 3.251-3.117 1.816-3.117 .418-2.362-.449-1.233-.449-.748-.449-.254-.277 0 0" fill="#3b3b3c"/>
<path transform="matrix(1,0,0,-1,625.8011,316.2779)" d="M0 0C0-.151-.045-.59-.045-.831L-.076-11.314C-.076-12.357-.378-13.538-.605-13.855H-1.134C-1.285-13.567-1.422-12.63-1.422-11.798V-.817C-1.422-.62-1.527-.514-1.633-.424L-2.466 .242C-2.42 .499-2.254 .786-2.118 .786-1.754 .786-.605 .484-.211 .317-.045 .242 0 .166 0 0M-7.335-2.843H-10.27L-10.21-7.759H-7.442ZM-2.768-.907C-2.768-1.058-2.814-1.498-2.814-1.74L-2.843-10.286C-2.843-11.328-3.131-12.494-3.358-12.811H-3.872C-4.023-12.523-4.144-11.616-4.144-10.769V-5.278L-4.719-5.294C-4.916-5.294-5.37-5.415-5.551-5.415-5.642-5.415-5.853-5.324-6.066-5.218L-6.216-7.2-6.367-7.744C-6.247-7.804-5.974-7.971-5.929-8.016-5.884-8.062-5.944-8.5-5.99-8.697H-10.24C-10.286-8.848-10.452-9.12-10.587-9.257H-11.117C-11.299-8.939-11.375-8.712-11.435-7.896L-11.707-3.025C-11.722-2.783-12.236-2.541-12.372-2.435-12.282-2.194-12.116-1.83-12.04-1.83-11.676-1.83-10.648-1.906-10.255-1.906H-8.002C-7.593-1.906-7.321-1.77-7.184-1.77-6.882-1.77-6.353-1.83-6.216-1.846-5.96-1.875-5.823-2.133-5.839-2.374L-6.005-4.431C-5.626-4.447-5.112-4.462-4.719-4.447L-4.144-4.417V-1.724C-4.144-1.527-4.25-1.422-4.356-1.331L-5.203-.665C-5.158-.424-4.976-.121-4.855-.121-4.492-.121-3.373-.424-2.98-.59-2.814-.665-2.768-.741-2.768-.907"/>
<path transform="matrix(1,0,0,-1,640.0889,316.2779)" d="M0 0C0-.151-.046-.59-.046-.831L-.076-11.314C-.076-12.357-.378-13.538-.605-13.855H-1.166C-1.316-13.567-1.453-12.63-1.453-11.798V-7.91C-3.237-8.47-7.396-9.257-8.924-9.257-9.287-9.257-10.044-8.379-10.044-8.047L-10.074-2.541C-10.074-2.45-10.12-2.36-10.195-2.329L-10.815-1.906C-10.785-1.709-10.619-1.316-10.452-1.316-10.255-1.316-9.363-1.376-9.166-1.376H-6.354C-5.869-1.376-5.007-1.165-4.75-1.165-4.417-1.165-3.872-1.21-3.736-1.361-3.57-1.573-3.6-2.087-3.812-2.314H-8.683V-8.031C-6.928-8.031-3.026-7.427-1.453-7.034V-.817C-1.453-.62-1.559-.514-1.664-.424L-2.496 .242C-2.451 .499-2.284 .786-2.148 .786-1.77 .786-.605 .484-.212 .317-.046 .242 0 .166 0 0"/>
<path transform="matrix(1,0,0,-1,655.7527,329.9364)" d="M0 0H-6.565C-7.518 0-8.032 .409-8.032 1.195V2.466C-8.032 2.572-8.047 2.662-8.153 2.723L-8.622 3.025C-8.622 3.147-8.486 3.464-8.395 3.464-8.153 3.464-7.246 3.389-6.974 3.389H-2.3C-2.269 3.645-2.254 4.371-2.254 4.84H-6.187C-6.565 4.84-7.049 4.719-7.2 4.719-7.578 4.719-8.638 5.159-8.743 5.249-8.743 5.491-8.638 5.824-8.546 5.824-8.35 5.824-6.898 5.748-6.187 5.748H-2.995C-2.754 5.748-2.148 5.884-1.982 5.884-1.815 5.884-1.332 5.824-1.119 5.779-.863 5.733-.757 5.612-.757 5.431-.757 5.219-.938 4.236-.998 3.676-1.029 3.616-1.074 3.449-1.105 3.373-.863 3.328-.711 3.147-.711 2.935-.711 2.753-.847 2.511-1.211 2.511H-6.641V1.301C-6.641 .999-6.414 .923-6.217 .923H-2.602C-2.148 .923-1.316 1.18-1.09 1.18-.711 1.18-.061 1.119 .09 .968 .242 .817 .242 .182 0 0M-11.481 5.642C-11.692 5.657-12.267 6.08-11.964 6.202-10.286 6.882-8.591 8.077-7.457 9.575L-9.802 9.379C-9.968 9.363-10.286 9.257-10.437 9.257-10.785 9.257-11.647 9.68-11.798 9.801-11.798 9.893-11.768 10.225-11.662 10.225-11.42 10.225-10.467 10.18-10.089 10.21L-6.868 10.467C-6.595 10.951-6.368 11.45-6.232 11.964H-8.622C-8.834 11.964-9.484 11.829-9.606 11.829-9.953 11.829-10.921 12.252-11.102 12.373-11.102 12.63-11.012 12.948-10.921 12.948-10.861 12.948-9.318 12.857-8.939 12.857H-6.504C-6.202 12.857-5.824 13.008-5.612 13.008-5.445 13.008-4.977 12.932-4.841 12.903-4.644 12.857-4.493 12.766-4.493 12.615-4.493 12.509-4.568 12.328-4.629 12.161-4.825 11.511-5.113 10.875-5.461 10.286-5.052 10.271-4.205 10.21-3.63 10.225L-1.952 10.255V12.842C-1.952 13.038-2.058 13.145-2.163 13.235L-3.01 13.9C-2.965 14.143-2.783 14.445-2.662 14.445-2.269 14.445-1.119 14.143-.726 13.976-.56 13.9-.515 13.825-.515 13.659-.515 13.507-.56 13.069-.56 12.827L-.591 8.683C-.591 7.684-.878 6.58-1.105 6.262H-1.68C-1.831 6.549-1.952 7.367-1.952 8.198V9.348L-3.63 9.318C-3.843 9.303-4.417 9.152-4.614 9.152-4.825 9.152-5.461 9.514-5.808 9.741-7.2 7.729-9.348 6.217-11.481 5.642"/>
<path transform="matrix(1,0,0,-1,0,595.276)" d="M671.716 276.714H666.755V275.18699H671.716ZM665.379 275.066 665.348 277.94C665.348 278.091 665.318 278.136 665.242 278.196 665.091 278.302 664.865 278.408 664.652 278.529 664.683 278.695 664.865 279.013 665 279.013 665.272 279.013 666.134 278.953 666.482 278.847 666.709 278.787 666.785 278.726 666.785 278.59 666.785 278.499 666.755 278.257 666.755 278.106V277.607H671.716V278.378C671.716 278.529 671.686 278.59 671.61 278.665 671.398 278.816 671.096 279.013 670.945 279.104 670.96 279.27 671.187 279.604 671.308 279.604 671.655 279.588 672.488 279.407 672.851 279.286 673.062 279.225 673.153 279.164 673.153 279.029 673.153 278.938 673.123 278.695 673.123 278.544L673.078 275.263C673.078 274.869 673.032 274.567 672.76 274.279H666.649C666.574 274.143 666.437 274.022 666.316 273.947H665.712C665.514 274.219 665.379 274.642 665.379 275.066M665.258 266.535V267.73C665.258 267.836 665.242 267.926 665.137 268.002L664.668 268.29C664.668 268.411 664.804 268.728 664.894 268.728 665.137 268.728 666.044 268.653 666.316 268.653H671.731C671.762 268.91 671.776 269.606 671.776 270.028H667.103C666.725 270.028 666.24 269.908 666.089 269.908 665.712 269.908 664.668 270.347 664.546 270.437 664.546 270.679 664.652 271.012 664.758 271.012 664.955 271.012 666.392 270.936 667.103 270.936H671.05C671.293 270.936 671.897 271.072 672.064 271.072 672.23 271.072 672.714 271.012 672.926 270.967 673.184 270.921 673.289 270.8 673.289 270.619 673.289 270.407 673.092 269.469 673.047 268.94 673.032 268.894 672.986 268.728 672.941 268.638 673.198 268.592 673.334 268.411 673.334 268.199 673.334 268.017 673.213 267.775 672.851 267.775H666.68V266.626C666.68 266.338 666.891 266.262 667.088 266.262H671.308C671.762 266.262 672.593 266.52 672.82 266.52 673.198 266.52 673.833 266.459 673.985 266.308 674.136 266.156 674.136 265.521 673.864 265.34H666.725C665.772 265.34 665.258 265.748 665.258 266.535M664.183 271.935C663.881 271.935 662.808 272.343 662.278 272.646 662.278 272.857 662.368 273.22 662.52 273.22 662.822 273.22 664.41 273.069 665.696 273.069H672.865C673.501 273.069 674.121 273.341 674.424 273.341 674.877 273.341 675.785 273.175 675.89 273.024 676.027 272.797 675.966 272.343 675.845 272.177H665.696C665.242 272.177 664.335 271.935 664.183 271.935"/>
<path transform="matrix(1,0,0,-1,681.8442,326.4121)" d="M0 0V-2.571H4.734L4.749 0ZM4.81 9.106H.302C-.167 9.106-.575 8.924-.832 8.924-1.105 8.924-1.936 9.287-2.375 9.499-2.36 9.741-2.224 10.134-2.073 10.12-1.588 10.089-.484 10.028 .302 10.028H3.993C4.325 10.028 4.794 10.165 4.931 10.165 5.127 10.165 5.747 10.104 6.065 10.044 6.292 9.999 6.382 9.801 6.367 9.62 6.322 9.287 6.095 8.153 6.019 7.699 6.201 7.639 6.292 7.518 6.292 7.336 6.292 7.095 6.156 6.928 5.868 6.928H-.394V5.975C-.394 5.672-.197 5.476 .166 5.476H3.902C4.507 5.476 5.188 5.687 5.414 5.687 5.913 5.687 6.549 5.612 6.701 5.506 6.912 5.37 6.881 4.825 6.685 4.568H-.515C-1.407 4.568-1.785 5.128-1.8 5.672L-1.815 6.686C-1.815 7.003-2.239 7.2-2.39 7.275-2.345 7.457-2.239 7.836-2.103 7.836-1.86 7.836-.998 7.76-.394 7.76H4.779ZM2.874 .878H4.265C4.522 .878 4.945 .998 5.082 .998 5.309 .998 5.778 .938 5.944 .908 6.14 .863 6.277 .666 6.261 .439L6.005-2.238 5.884-2.556 6.458-2.768C6.519-2.843 6.443-3.312 6.398-3.478H-.061C-.121-3.645-.212-3.811-.348-3.932H-.847C-1.014-3.645-1.18-3.297-1.24-2.601L-1.437-.136C-1.453 .03-1.876 .197-2.042 .318-2.012 .53-1.86 .908-1.785 .908-1.407 .908-.424 .878-.03 .878H1.664C1.618 1.059 1.603 1.256 1.603 1.437V2.421H-1.18C-1.634 2.421-2.541 2.179-2.693 2.179-2.995 2.179-4.069 2.587-4.598 2.889-4.598 3.101-4.508 3.479-4.357 3.479-4.054 3.479-2.466 3.328-1.18 3.328H5.989C6.625 3.328 7.245 3.616 7.548 3.616 8.001 3.616 8.909 3.449 9.014 3.282 9.151 3.055 9.09 2.587 8.969 2.421H2.995L2.98 1.559C2.98 1.316 2.934 1.089 2.874 .878"/>
<path transform="matrix(1,0,0,-1,656.2524,282.0117)" d="M0 0H12.873C16.208 0 18.922-2.713 18.922-6.048 18.922-6.781 18.777-7.486 18.533-8.146ZM9.338-15.631C9.338-17.916 8.05-19.885 6.176-20.914L-1.764-2.848 9.338-13.951ZM-2.759-15.631V-2.759L5.384-21.284C4.729-21.528 4.029-21.68 3.29-21.68-.045-21.68-2.759-18.966-2.759-15.631M-11.43-21.68C-12.163-21.68-12.867-21.536-13.527-21.291L-5.38-2.757V-15.631C-5.38-18.966-8.094-21.68-11.43-21.68M-19.332-12.097H-21.012C-23.297-12.097-25.266-10.809-26.295-8.935L-8.228-.994ZM-21.012 0H-8.14L-26.666-8.143C-26.909-7.488-27.062-6.788-27.062-6.048-27.062-2.713-24.348 0-21.012 0M-27.062 8.671C-27.062 9.404-26.917 10.108-26.672 10.768L-8.138 2.622H-21.012C-24.348 2.622-27.062 5.336-27.062 8.671M-17.478 18.254C-17.478 20.538-16.19 22.507-14.316 23.536L-6.376 5.471-17.478 16.573ZM-5.38 18.254V5.379L-13.524 23.906C-12.869 24.15-12.169 24.302-11.43 24.302-8.094 24.302-5.38 21.589-5.38 18.254M3.29 24.302C4.023 24.302 4.727 24.158 5.387 23.913L-2.759 5.381V18.254C-2.759 21.589-.045 24.302 3.29 24.302M11.192 14.72H12.873C15.157 14.72 17.126 13.432 18.155 11.558L.091 3.618ZM12.873 2.622H-.002L18.526 10.765C18.77 10.11 18.922 9.41 18.922 8.671 18.922 5.336 16.208 2.622 12.873 2.622M17.434 1.311C19.896 2.843 21.544 5.565 21.544 8.671 21.544 13.452 17.654 17.341 12.873 17.341H10.649C10.302 17.341 9.968 17.203 9.722 16.957L-1.765 5.469 6.184 23.553C7.482 22.844 8.514 21.678 9.015 20.214 9.249 19.53 9.996 19.161 10.679 19.398 11.365 19.632 11.73 20.378 11.495 21.062 10.295 24.568 6.998 26.924 3.29 26.924 .184 26.924-2.538 25.277-4.07 22.815-5.601 25.277-8.323 26.924-11.43 26.924-16.211 26.924-20.1 23.035-20.1 18.254V16.03C-20.1 15.683-19.962 15.349-19.716 15.104L-8.229 3.617-26.312 11.565C-25.603 12.862-24.437 13.894-22.973 14.395-22.288 14.63-21.923 15.375-22.158 16.06-22.391 16.745-23.137 17.115-23.823 16.875-27.328 15.675-29.683 12.379-29.683 8.671-29.683 5.565-28.036 2.843-25.574 1.311-28.036-.22-29.683-2.942-29.683-6.048-29.683-10.83-25.793-14.719-21.012-14.719H-18.789C-18.442-14.719-18.108-14.581-17.862-14.335L-6.376-2.85-14.323-20.931C-15.621-20.222-16.653-19.056-17.154-17.592-17.388-16.907-18.134-16.537-18.819-16.776-19.503-17.011-19.869-17.756-19.634-18.441-18.434-21.947-15.137-24.302-11.43-24.302-8.323-24.302-5.601-22.655-4.07-20.193-2.538-22.655 .184-24.302 3.29-24.302 8.071-24.302 11.96-20.412 11.96-15.631V-13.408C11.96-13.06 11.822-12.727 11.576-12.481L.09-.994 18.172-8.942C17.464-10.24 16.297-11.272 14.833-11.773 14.148-12.008 13.783-12.753 14.018-13.439 14.252-14.122 14.995-14.491 15.683-14.254 19.188-13.054 21.544-9.756 21.544-6.048 21.544-2.942 19.896-.22 17.434 1.311" fill="#393a3a"/>
</g>
</g>
</svg>
